<?xml version="1.0" encoding="UTF-8"?>
<svg width="456" height="456" viewBox="0 0 456 456" xmlns="http://www.w3.org/2000/svg">
  <defs>
    <linearGradient id="splashGrad" x1="0%" y1="0%" x2="100%" y2="100%">
      <stop offset="0%" style="stop-color:#FFD700;stop-opacity:1"/>
      <stop offset="100%" style="stop-color:#2BBDEE;stop-opacity:1"/>
    </linearGradient>
  </defs>
  <!-- Shield outline -->
  <path d="M228 48L88 108V238C88 342 148 426 228 450C308 426 368 342 368 238V108L228 48Z"
        fill="none" stroke="url(#splashGrad)" stroke-width="12" stroke-linejoin="round"/>
  <!-- Shield fill -->
  <path d="M228 68L104 122V238C104 332 158 410 228 432C298 410 352 332 352 238V122L228 68Z"
        fill="url(#splashGrad)" opacity="0.08"/>
  <!-- Star -->
  <path d="M228 138L252 206H324L266 248L286 318L228 276L170 318L190 248L132 206H204L228 138Z"
        fill="url(#splashGrad)"/>
</svg>
