<?xml version="1.0" encoding="UTF-8"?>
<svg width="456" height="456" viewBox="0 0 456 456" xmlns="http://www.w3.org/2000/svg">
  <defs>
    <linearGradient id="shieldGrad" x1="0%" y1="0%" x2="100%" y2="100%">
      <stop offset="0%" style="stop-color:#FFD700;stop-opacity:1"/>
      <stop offset="100%" style="stop-color:#2BBDEE;stop-opacity:1"/>
    </linearGradient>
    <linearGradient id="starGrad" x1="0%" y1="0%" x2="100%" y2="100%">
      <stop offset="0%" style="stop-color:#FFD700;stop-opacity:1"/>
      <stop offset="100%" style="stop-color:#2BBDEE;stop-opacity:1"/>
    </linearGradient>
  </defs>
  <!-- Shield outline -->
  <path d="M228 68L108 118V228C108 318 158 398 228 418C298 398 348 318 348 228V118L228 68Z"
        fill="none" stroke="url(#shieldGrad)" stroke-width="14" stroke-linejoin="round"/>
  <!-- Shield inner glow fill -->
  <path d="M228 88L124 132V228C124 308 168 382 228 400C288 382 332 308 332 228V132L228 88Z"
        fill="url(#shieldGrad)" opacity="0.1"/>
  <!-- Star -->
  <path d="M228 148L248 208H312L260 244L278 308L228 270L178 308L196 244L144 208H208L228 148Z"
        fill="url(#starGrad)"/>
</svg>
